<?xml version="1.0" encoding="UTF-8"?>
<svg width="600" height="400" viewBox="0 0 600 400" fill="none" xmlns="http://www.w3.org/2000/svg">
  <rect width="600" height="400" fill="#F8F9FA"/>
  <path d="M300 180c-17.7 0-32 14.3-32 32s14.3 32 32 32 32-14.3 32-32-14.3-32-32-32zm-96 32c0 53 43 96 96 96s96-43 96-96-43-96-96-96-96 43-96 96zm224 0c0 70.7-57.3 128-128 128s-128-57.3-128-128 57.3-128 128-128 128 57.3 128 128z" fill="#DEE2E6"/>
  <text x="300" y="320" text-anchor="middle" font-family="system-ui, -apple-system" font-size="16" fill="#868E96">Recipe Image</text>
</svg> 